HIERARCHY
ROOT Hips
{
	OFFSET 0.000000 0.000000 0.000000
	CHANNELS 6 Xposition Yposition Zposition Xrotation Yrotation Zrotation
	JOINT LeftUpLeg_virtual
	{
		OFFSET 0.000000 0.000000 0.000000
		CHANNELS 3 Xrotation Yrotation Zrotation
		JOINT LeftUpLeg
		{
			OFFSET 15.427100 -6.655098 0.678600
			CHANNELS 3 Xrotation Yrotation Zrotation
			JOINT LeftLeg
			{
				OFFSET 4.081073 -39.591068 13.024000
				CHANNELS 3 Xrotation Yrotation Zrotation
				JOINT LeftFoot
				{
					OFFSET -4.081074 -37.707932 -15.979700
					CHANNELS 3 Xrotation Yrotation Zrotation
					JOINT LeftToeBase
					{
						OFFSET 5.346399 -15.068900 20.645000
						CHANNELS 3 Xrotation Yrotation Zrotation
						JOINT LeftToe_End
						{
							OFFSET 2.754700 0.931300 11.300900
							CHANNELS 3 Xrotation Yrotation Zrotation
							End Site
							{
								OFFSET 0 0 0
							}
						}
					}
				}
			}
		}
	}
	JOINT RightUpLeg_virtual
	{
		OFFSET 0.000000 0.000000 0.000000
		CHANNELS 3 Xrotation Yrotation Zrotation
		JOINT RightUpLeg
		{
			OFFSET -15.569500 -6.655098 0.678600
			CHANNELS 3 Xrotation Yrotation Zrotation
			JOINT RightLeg
			{
				OFFSET -4.081825 -39.591045 13.023800
				CHANNELS 3 Xrotation Yrotation Zrotation
				JOINT RightFoot
				{
					OFFSET 4.081824 -37.707954 -15.979600
					CHANNELS 3 Xrotation Yrotation Zrotation
					JOINT RightToeBase
					{
						OFFSET -5.346400 -15.068900 20.645000
						CHANNELS 3 Xrotation Yrotation Zrotation
						JOINT RightToe_End
						{
							OFFSET -2.754700 0.931300 11.300900
							CHANNELS 3 Xrotation Yrotation Zrotation
							End Site
							{
								OFFSET 0 0 0
							}
						}
					}
				}
			}
		}
	}
	JOINT Spine_virtual
	{
		OFFSET 0.000000 0.000000 0.000000
		CHANNELS 3 Xrotation Yrotation Zrotation
		JOINT Spine
		{
			OFFSET -0.279200 12.230698 -2.892100
			CHANNELS 3 Xrotation Yrotation Zrotation
			JOINT Spine1
			{
				OFFSET -0.232667 10.192268 -1.242267
				CHANNELS 3 Xrotation Yrotation Zrotation
				JOINT Spine1_split
				{
					OFFSET -0.232667 10.192268 -1.242267
					CHANNELS 3 Xrotation Yrotation Zrotation
					JOINT Spine2
					{
						OFFSET -0.232667 10.192268 -1.242267
						CHANNELS 3 Xrotation Yrotation Zrotation
						JOINT Neck_virtual
						{
							OFFSET 0.000000 0.000000 0.000000
							CHANNELS 3 Xrotation Yrotation Zrotation
							JOINT Neck
							{
								OFFSET -0.418800 17.814194 8.416900
								CHANNELS 3 Xrotation Yrotation Zrotation
								JOINT Head
								{
									OFFSET 0.000000 7.031097 3.806800
									CHANNELS 3 Xrotation Yrotation Zrotation
									JOINT HeadTop_End
									{
										OFFSET 0.000000 24.646606 12.978600
										CHANNELS 3 Xrotation Yrotation Zrotation
										End Site
										{
											OFFSET 0 0 0
										}
									}
								}
							}
						}
						JOINT LeftShoulder_virtual
						{
							OFFSET 0.000000 0.000000 0.000000
							CHANNELS 3 Xrotation Yrotation Zrotation
							JOINT LeftShoulder
							{
								OFFSET 8.476499 7.247704 -3.868750
								CHANNELS 3 Xrotation Yrotation Zrotation
								JOINT LeftShoulder_split
								{
									OFFSET 8.476499 7.247704 -3.868750
									CHANNELS 3 Xrotation Yrotation Zrotation
									JOINT LeftArm
									{
										OFFSET 9.308998 -2.777710 0.208600
										CHANNELS 3 Xrotation Yrotation Zrotation
										JOINT LeftForeArm
										{
											OFFSET 29.972298 0.000000 0.000000
											CHANNELS 3 Xrotation Yrotation Zrotation
											JOINT LeftHand
											{
												OFFSET 26.026505 0.000000 0.000000
												CHANNELS 3 Xrotation Yrotation Zrotation
												End Site
												{
													OFFSET 0 0 0
												}
											}
										}
									}
								}
							}
						}
						JOINT RightShoulder_virtual
						{
							OFFSET 0.000000 0.000000 0.000000
							CHANNELS 3 Xrotation Yrotation Zrotation
							JOINT RightShoulder
							{
								OFFSET -7.570500 7.247704 -3.868750
								CHANNELS 3 Xrotation Yrotation Zrotation
								JOINT RightShoulder_split
								{
									OFFSET -7.570500 7.247704 -3.868750
									CHANNELS 3 Xrotation Yrotation Zrotation
									JOINT RightArm
									{
										OFFSET -9.308998 -2.777710 0.208500
										CHANNELS 3 Xrotation Yrotation Zrotation
										JOINT RightForeArm
										{
											OFFSET -29.972300 0.000000 0.000000
											CHANNELS 3 Xrotation Yrotation Zrotation
											JOINT RightHand
											{
												OFFSET -26.026505 0.000000 0.000000
												CHANNELS 3 Xrotation Yrotation Zrotation
												End Site
												{
													OFFSET 0 0 0
												}
											}
										}
									}
								}
							}
						}
					}
				}
			}
		}
	}
}
MOTION
Frames: 4
Frame Time: 0.03333333
1.836826 72.188721 0.378399 0.000000 0.000000 0.000000 6.502378 -4.908852 -18.931638 -70.850734 24.240575 21.313682 83.731801 -4.372058 2.311492 26.664994 3.716387 23.900488 -34.699594 -5.502290 0.965928 0.000000 0.000000 0.000000 4.570936 -3.507564 -19.379005 -21.155768 4.439807 -6.380503 50.712491 14.101249 1.797407 4.900423 17.454641 -1.507665 -35.089007 5.427985 -1.301155 0.000000 0.000000 0.000000 0.385119 1.334471 -17.893224 7.792778 6.054146 2.208666 1.162008 2.336239 1.678616 1.252327 1.494354 1.127960 0.000000 0.000000 0.000000 1.799002 1.383822 2.746683 -6.708676 3.251764 -3.468459 -14.646676 7.270843 2.684317 0.000000 0.000000 0.000000 1.684666 1.735982 1.488597 -1.307609 -4.964056 -4.531530 -1.251896 -0.803538 -1.091424 62.306160 -17.774751 -43.591367 10.404637 -76.297311 10.340983 0.000000 0.000000 0.000000 2.639958 2.129924 2.296446 2.686270 -7.109980 6.719721 7.855810 4.721348 -5.714819 -15.855862 20.530772 55.312525 9.809390 78.395231 -9.273216 0.000000 0.000000 0.000000 
1.882982 73.692078 13.684071 0.000000 0.000000 0.000000 4.009434 -7.623470 -19.284300 -72.501823 23.327705 20.340136 67.782319 -1.266384 0.182627 23.983796 5.379332 22.749004 -27.976819 -3.676325 -1.655349 0.000000 0.000000 0.000000 4.379270 -8.000188 -19.768319 -15.659264 3.306012 -7.400962 50.590374 14.139613 1.888915 9.212422 17.358224 -0.490044 -35.518882 5.377291 -1.316885 0.000000 0.000000 0.000000 1.239892 -1.730858 -18.705713 5.924279 7.411382 2.434182 0.963129 2.809538 1.377395 0.708792 4.379148 0.455730 0.000000 0.000000 0.000000 1.707595 1.838163 2.622966 -5.932730 2.640872 -3.283792 -15.427553 7.774459 3.461022 0.000000 0.000000 0.000000 1.351759 2.361703 1.587515 -1.132439 -2.693970 -3.484591 -1.050381 1.009297 -1.266508 64.963712 -15.250737 -42.535782 9.258935 -79.401933 8.544684 0.000000 0.000000 0.000000 1.631584 2.464852 1.940882 1.891192 -5.558332 5.674409 6.741597 5.590355 -6.096101 -23.192689 25.899930 59.165557 85.039441 88.668368 -85.476696 0.000000 0.000000 0.000000 
2.944134 75.077751 30.246462 0.000000 0.000000 0.000000 2.530061 -9.381033 -18.922428 -70.655657 18.342191 14.661829 51.256315 1.741043 -0.542431 22.096068 8.162318 20.674122 -13.461836 -1.974959 -6.145483 0.000000 0.000000 0.000000 4.783970 -8.932758 -19.339927 -8.528856 3.278720 -8.776368 51.638843 14.679364 0.728585 15.478252 17.784636 3.917878 -40.719570 4.701786 -0.053441 0.000000 0.000000 0.000000 2.156863 -3.521221 -18.609221 4.383210 10.027835 2.495057 0.898231 3.861473 1.095446 0.453782 4.725939 0.142974 0.000000 0.000000 0.000000 1.433988 2.825625 2.262723 -4.831004 1.682178 -2.230817 -15.609906 8.963970 3.851746 0.000000 0.000000 0.000000 0.950107 3.588986 1.510705 -1.119461 0.138987 -2.509647 -1.025405 1.249128 -0.655394 66.867190 -12.869630 -43.765065 8.409106 -83.371495 7.042702 0.000000 0.000000 0.000000 1.059834 3.483585 1.433287 1.207070 -3.621004 4.698483 6.588271 4.049518 -5.617638 -28.755978 31.773767 62.754214 175.264102 78.875421 -176.612381 0.000000 0.000000 0.000000 
5.022836 74.858261 48.163113 0.000000 0.000000 0.000000 1.644682 -8.605233 -18.103835 -66.746193 10.537550 6.231346 40.383818 3.131536 0.140720 21.093873 10.705749 18.764372 -1.827543 -1.582115 -8.994312 0.000000 0.000000 0.000000 5.790328 -6.075424 -18.379409 -2.563846 4.172118 -10.263048 54.650819 14.849067 -1.399548 20.229991 17.054001 7.731132 -44.615028 3.397170 1.958107 0.000000 0.000000 0.000000 1.989505 -2.680663 -18.008996 3.845954 12.951355 2.208427 1.087550 4.969474 0.953559 0.951267 3.316803 0.430548 0.000000 0.000000 0.000000 0.991680 3.818549 1.837434 -3.744118 1.028333 -0.622204 -15.137871 10.809851 3.809452 0.000000 0.000000 0.000000 0.700777 4.785404 1.323960 -1.177393 2.494166 -2.017910 -0.278068 0.619135 -0.116679 65.955954 -11.762186 -46.647764 7.060625 -86.349984 5.479385 0.000000 0.000000 0.000000 1.005862 4.585816 0.908006 0.622813 -1.918741 4.265827 7.438003 1.673903 -4.003207 -28.165733 35.713802 63.937148 177.487342 71.239023 -179.426870 0.000000 0.000000 0.000000 
